<svg id="Layer_1" data-name="Layer 1" xmlns="http://www.w3.org/2000/svg" viewBox="0 0 1308.17 1019.72"><defs><style>.cls-1{fill:#fff;}</style></defs><title>australia-map</title><path class="cls-1" d="M730.5,954.5s506-262,573,0l73-81s15,208,180,241c0,0,37-45,48-38,0,0,22,11,31,38,0,0,74-73,133-51,0,0,144-255,120-363,0,0-58-209-241-333,0,0-97-289-127-272,0,0-20,19-31,99,0,0,22,109-41,129,0,0-121-47-159-99,0,0,54-49,52-80s-207-5-207-5-59,81-33,98c0,0-77-21-67-39,0,0-155,36-204,188,0,0-161,15-247,116,0,0-8,275,42,415C625.5,917.5,662.5,978.5,730.5,954.5Z" transform="translate(-583.03 -94.78)"/></svg>