<svg id="Layer_1" data-name="Layer 1" xmlns="http://www.w3.org/2000/svg" viewBox="0 0 639.47 513.57"><defs><style>.cls-1{fill:#fff;}.cls-2{fill:none;}</style></defs><title>list</title><rect class="cls-1" x="181.61" y="72" width="360.56" height="68.3" rx="30.95" ry="30.95"/><rect class="cls-1" x="181.61" y="172.42" width="360.56" height="68.3" rx="30.95" ry="30.95"/><rect class="cls-1" x="181.61" y="272.85" width="360.56" height="68.3" rx="30.95" ry="30.95"/><rect class="cls-1" x="181.32" y="373.27" width="360.56" height="68.3" rx="30.95" ry="30.95"/><rect class="cls-1" x="82.07" y="72" width="86" height="68.3" rx="30.95" ry="30.95"/><rect class="cls-1" x="82.07" y="172.42" width="86" height="68.3" rx="30.95" ry="30.95"/><rect class="cls-1" x="82.07" y="272.85" width="86" height="68.3" rx="30.95" ry="30.95"/><rect class="cls-1" x="82" y="373.27" width="86" height="68.3" rx="30.95" ry="30.95"/><rect class="cls-2" x="138.42" width="501.05" height="94.91" rx="30.95" ry="30.95"/><rect class="cls-2" x="138.42" y="139.55" width="501.05" height="94.91" rx="30.95" ry="30.95"/><rect class="cls-2" x="138.42" y="279.11" width="501.05" height="94.91" rx="30.95" ry="30.95"/><rect class="cls-2" x="138.02" y="418.66" width="501.05" height="94.91" rx="30.95" ry="30.95"/><rect class="cls-2" x="0.1" width="119.5" height="94.91" rx="30.95" ry="30.95"/><rect class="cls-2" x="0.1" y="139.55" width="119.5" height="94.91" rx="30.95" ry="30.95"/><rect class="cls-2" x="0.1" y="279.11" width="119.5" height="94.91" rx="30.95" ry="30.95"/><rect class="cls-2" y="418.66" width="119.5" height="94.91" rx="30.95" ry="30.95"/></svg>