<?xml version="1.0" encoding="iso-8859-1"?>
<!-- Generator: Adobe Illustrator 19.0.0, SVG Export Plug-In . SVG Version: 6.00 Build 0)  -->
<svg version="1.1" id="Layer_1" xmlns="http://www.w3.org/2000/svg" xmlns:xlink="http://www.w3.org/1999/xlink" x="0px" y="0px"
	 viewBox="0 0 512 512" style="enable-background:new 0 0 512 512;" xml:space="preserve">
<g>
	<g>
		<path d="M502.954,20.921H9.046C4.05,20.921,0,24.971,0,29.967v452.066c0,4.996,4.05,9.046,9.046,9.046h493.908
			c4.996,0,9.046-4.05,9.046-9.046V29.967C512,24.971,507.95,20.921,502.954,20.921z M18.092,39.013h475.816v58.547
			c-24.653,15.927-56.088,15.92-80.713-0.005V54.089c0-4.996-4.05-9.046-9.046-9.046s-9.046,4.05-9.046,9.046v43.476
			c-24.644,15.912-56.056,15.906-80.689-0.012v-28.99c0-4.996-4.05-9.046-9.046-9.046c-4.996,0-9.046,4.05-9.046,9.046v29
			c-24.66,15.922-56.094,15.908-80.679,0.001V68.563c0-4.996-4.05-9.046-9.046-9.046c-4.996,0-9.046,4.05-9.046,9.046v28.996
			c-24.641,15.912-56.049,15.911-80.689-0.005V54.089c0-4.996-4.05-9.046-9.046-9.046s-9.046,4.05-9.046,9.046v43.475
			c-24.615,15.891-55.982,15.903-80.68-0.012V39.013z M469.031,314.911c-19.9-42.346-32.006-112.583-32.68-188.915
			c19.292,3.668,39.464,1.093,57.556-7.71v231.557c-35.195-3.38-68.222-26.43-93.816-65.766
			c-27.28-41.929-42.842-97.223-44.179-156.475c16.757-0.206,33.466-4.976,48.25-14.332c4.528,2.863,9.239,5.283,14.072,7.29
			c0.136,80.959,12.979,156.414,34.423,202.048c1.54,3.278,4.797,5.201,8.193,5.201c1.288,0,2.598-0.276,3.841-0.861
			C469.213,324.821,471.155,319.433,469.031,314.911z M18.092,118.295c18.077,8.797,38.255,11.37,57.557,7.696
			c-0.674,76.334-12.78,146.573-32.68,188.92c-2.124,4.522-0.181,9.909,4.34,12.035c1.244,0.584,2.552,0.861,3.842,0.861
			c3.396,0,6.653-1.923,8.193-5.201c21.445-45.635,34.288-121.094,34.423-202.056c4.828-2.005,9.536-4.423,14.059-7.283
			c14.796,9.356,31.509,14.122,48.262,14.328c-1.336,59.254-16.898,114.552-44.179,156.483
			c-25.593,39.335-58.619,62.386-93.816,65.765V118.295z M56.67,472.985v0.001c-0.566-25.558-3.521-49.545-8.647-69.838
			c-1.224-4.844-6.145-7.781-10.985-6.555c-4.844,1.223-7.778,6.142-6.555,10.985c4.699,18.6,7.517,41.541,8.088,65.407H18.092
			V369.309c14.82,3.105,28.711,13.8,39.827,30.886c12.754,19.602,20.338,45.175,21.699,72.79H56.67z M369.376,472.986H142.624
			v-19.068h226.751V472.986z M387.468,472.986v-28.114c0-4.995-4.05-9.045-9.046-9.045H133.578c-4.996,0-9.046,4.05-9.046,9.046
			v28.114H97.705c-1.404-31.12-10.005-60.194-24.619-82.657c-7.8-11.988-16.88-21.476-26.817-28.203
			c30.533-10.447,58.419-33.773,80.807-68.183c29.402-45.189,46.043-104.595,47.149-167.928c11.287-2.123,22.278-6.365,32.375-12.75
			c15.139,9.574,32.278,14.357,49.415,14.355c17.137-0.001,34.268-4.786,49.37-14.353c10.104,6.39,21.104,10.633,32.397,12.756
			c1.107,63.328,17.748,122.732,47.149,167.918c22.389,34.411,50.274,57.737,80.807,68.183
			c-9.938,6.727-19.018,16.215-26.817,28.203c-14.615,22.463-23.215,51.537-24.619,82.657H387.468z M493.909,472.987h-20.481v-0.001
			c0.573-23.864,3.39-46.806,8.089-65.407c1.224-4.844-1.71-9.762-6.555-10.985c-4.847-1.225-9.762,1.711-10.985,6.555
			c-5.126,20.293-8.082,44.28-8.647,69.838h-22.948c1.36-27.615,8.946-53.188,21.699-72.79
			c11.117-17.087,25.007-27.782,39.827-30.886V472.987z"/>
	</g>
</g>
<g>
</g>
<g>
</g>
<g>
</g>
<g>
</g>
<g>
</g>
<g>
</g>
<g>
</g>
<g>
</g>
<g>
</g>
<g>
</g>
<g>
</g>
<g>
</g>
<g>
</g>
<g>
</g>
<g>
</g>
</svg>
