<svg id="Layer_1" data-name="Layer 1" xmlns="http://www.w3.org/2000/svg" viewBox="0 0 1460.41 383.63"><defs><style>.cls-1{fill:none;stroke:#fff775;stroke-miterlimit:10;stroke-width:17px;}.cls-2{font-size:225px;fill:#fff775;font-family:CenturyGothicPro-Bold, Century Gothic Pro;font-weight:700;}.cls-3{letter-spacing:-0.03em;}.cls-4{letter-spacing:0em;}</style></defs><title>The Circuit</title><path class="cls-1" d="M408.5,652.2q-3.4.21-6.84.27c-1.05,0-2.1,0-3.16,0a165,165,0,0,1-.29-330h.29q5,0,10,.3" transform="translate(-225 -295.5)"/><path class="cls-1" d="M436.34,411.4a18,18,0,0,1-1.17,6.43,18.31,18.31,0,0,1-35.46-6.43,17.15,17.15,0,0,1,.1-1.9,18.31,18.31,0,0,1,36.53,1.9Z" transform="translate(-225 -295.5)"/><path class="cls-1" d="M438,564.82a18.31,18.31,0,0,1-36.55,1.65,15,15,0,0,1-.08-1.65,18.32,18.32,0,1,1,36.63,0Z" transform="translate(-225 -295.5)"/><path class="cls-1" d="M403.75,566.34c-1.08.07-2.17.11-3.25.13H399a78.49,78.49,0,0,1-.14-157H399c1.6,0,3.18.05,4.76.14" transform="translate(-225 -295.5)"/><text class="cls-2" transform="translate(328 274.5)">The Ci<tspan class="cls-3" x="665.99" y="0">r</tspan><tspan class="cls-4" x="731.92" y="0">cuit</tspan></text><path class="cls-1" d="M436.34,322.31a18.13,18.13,0,0,1-1.17,6.44,18.31,18.31,0,0,1-35.46-6.44,17.15,17.15,0,0,1,.1-1.9,18.31,18.31,0,0,1,36.53,1.9Z" transform="translate(-225 -295.5)"/><path class="cls-1" d="M436.34,652.31a18.13,18.13,0,0,1-1.17,6.44,18.31,18.31,0,0,1-35.46-6.44,17.15,17.15,0,0,1,.1-1.9,18.31,18.31,0,0,1,36.53,1.9Z" transform="translate(-225 -295.5)"/></svg>